# xmcd CD database file
#
# Track frame offsets:
#	150
#	19973
#	40638
#	58478
#	75960
#	93103
#	110270
#	127695
#	148158
#	170183
#	189035
#	204165
#	224653
#	247703
#
# Disc length: 3505 seconds
#
# Revision: 0
# Processed by: cddbd v1.5.1PL0 Copyright (c) Steve Scherf et al.
# Submitted via: CDex 1.51
#
DISCID=b30daf0e
DTITLE=竹内まりや - Re-Collection?
DYEAR=1900
DGENRE=ポップ
TTITLE0=不思議なピーチパイ
TTITLE1=セプテンバー
TTITLE2=Natalie
TTITLE3=リンダ
TTITLE4=スペシャル・デリヴァリー〜特別航空便
TTITLE5=ドリーム・オブ・ユー〜レモンライムの青い風
TTITLE6=すてきなヒットソング
TTITLE7=戻っておいで私の時間
TTITLE8=涙のワンサイデッド・ラヴ
TTITLE9=象牙海岸
TTITLE10=夏の恋人
TTITLE11=遠く離れて
TTITLE12=突然の贈りもの
TTITLE13=フライ・アウェイ
EXTD=
EXTT0=
EXTT1=
EXTT2=
EXTT3=
EXTT4=
EXTT5=
EXTT6=
EXTT7=
EXTT8=
EXTT9=
EXTT10=
EXTT11=
EXTT12=
EXTT13=
PLAYORDER=
